<?xml version="1.0" encoding="utf-8"?>
<!-- Generator: Adobe Illustrator 22.1.0, SVG Export Plug-In . SVG Version: 6.00 Build 0)  -->
<svg version="1.1" id="Capa_1" xmlns="http://www.w3.org/2000/svg" xmlns:xlink="http://www.w3.org/1999/xlink" x="0px" y="0px"
	 viewBox="0 0 512 512" style="enable-background:new 0 0 512 512;" xml:space="preserve">
<style type="text/css">
	.st0{fill:#F5EBCD;}
	.st1{fill:#F4DBB3;}
	.st2{fill:#E5646E;}
	.st3{fill:#DB4655;}
	.st4{font-family:'Tondo';}
	.st5{font-size:101.1953px;}
	.st6{fill:#FF5722;}
</style>
<g>
	<g>
		<path class="st0" d="M442.9,129.2c0-27-15.5-50.3-38-61.7c-2.6-25.4-24-45.3-50.1-45.3c-15.8,0-29.8,7.3-39.1,18.6
			c-7.1-3.8-15.2-6-23.9-6c-27.8,0-50.4,22.5-50.4,50.4l-37.8,226.6c0,26.1,17.6,48,41.6,54.6l21.4,1.7
			c28.3-3.1,50.3-27.1,50.3-56.3c0-2.2-0.2-4.4-0.4-6.6c31.7-2.7,57.3-26.7,62.4-57.7c22.2-5.2,38.7-25.1,38.7-49
			c0-5-0.7-9.7-2.1-14.3C432.2,171.5,442.9,151.6,442.9,129.2L442.9,129.2z"/>
		<path class="st1" d="M266.7,41.6c-15,8.7-25.2,24.9-25.2,43.6l-37.8,226.6c0,31.3,25.4,56.6,56.6,56.6c2.1,0,4.2-0.1,6.3-0.3
			L266.7,41.6z"/>
		<path class="st2" d="M240.8,48.9c-22.2-22.7-54.3-35.9-89.3-32.5c-58.3,5.6-101.7,58-98.6,116.5c5.7,110.7,140.6,206.7,182.6,234
			c5.3,3.5,12.4-0.4,12.4-6.7l0-293.8C247.8,59.9,245.4,53.5,240.8,48.9z"/>
		<path class="st3" d="M71.7,120.5C69.8,84,86,49.9,112.5,28.1c-37.5,19.6-62,60.4-59.7,104.8c5.7,110.7,140.6,206.7,182.6,234
			c5.3,3.5,12.4-0.4,12.4-6.7v-10C200,318.1,77.2,226,71.7,120.5L71.7,120.5z"/>
	</g>
	<g>
		<path d="M448.8,129.3c0-27.3-14.7-52.3-38.5-65.6c-4.3-26.8-27.6-47.3-55.5-47.3c-15.3,0-29.9,6.2-40.5,17.2
			c-7-3-14.6-4.6-22.4-4.6c-16.9,0-32.4,7.4-43,20C224.3,21.3,188.1,7,150.9,10.6c-29.6,2.9-56.7,17.2-76.3,40.5
			C55.3,74.2,45.4,103.4,47,133.3c2.5,48.8,29.2,99.9,79.3,152c39.6,41.2,83.4,71.9,105.9,86.6c2.3,1.5,4.9,2.2,7.6,2.2
			c2.3,0,4.5-0.6,6.6-1.7c4.5-2.4,7.3-7.1,7.3-12.2V240.9c8,8.5,19.3,13.9,31.9,13.9c3.3,0,5.9-2.6,5.9-5.9s-2.6-5.9-5.9-5.9
			c-17.6,0-31.9-14.3-31.9-31.9V110.4c0-3.3-2.6-5.9-5.9-5.9s-5.9,2.6-5.9,5.9v249.9c0,1.1-0.7,1.7-1.1,1.9
			c-0.4,0.2-1.2,0.5-2.1-0.1C197.9,335.5,64.4,240.6,58.8,132.7c-1.4-26.9,7.5-53.2,24.9-74c17.6-20.9,41.8-33.8,68.4-36.4
			c34.4-3.3,67.8,10.3,89.9,36.6l0,26.2c0,3.3,2.6,5.9,5.9,5.9h0c3.3,0,5.9-2.6,5.9-5.9l0-22.9c0.1-0.1,0.2-0.2,0.3-0.4
			c8.2-13.3,22.3-21.2,37.9-21.2c13.6,0,26.2,6.1,34.7,16.6c2,2.5,5.7,2.9,8.3,0.9c2.5-2,2.9-5.7,0.9-8.3c-3.2-4-6.8-7.4-10.8-10.3
			c8.1-7.4,18.8-11.5,29.9-11.5c24.5,0,44.5,19.9,44.5,44.5c0,5.3-0.9,10.4-2.7,15.3c-1.1,3.1,0.4,6.4,3.5,7.6
			c0.7,0.2,1.4,0.4,2,0.4c2.4,0,4.7-1.5,5.5-3.9c1.7-4.6,2.7-9.3,3.2-14.1c16.4,11.8,26.2,30.8,26.2,51.4c0,17.2-6.8,33.2-18.8,45.1
			c-0.7-1.5-1.5-3-2.4-4.5c-1.7-2.8-5.3-3.7-8.1-2.1c-2.8,1.7-3.7,5.3-2.1,8.1c4,6.8,6.2,14.6,6.2,22.6c0,17.7-10.4,33.4-26,40.5
			c0-0.9,0.1-1.8,0.1-2.7c0-5.3-0.5-10.5-1.6-15.6c-0.7-3.2-3.8-5.2-7-4.5c-3.2,0.7-5.2,3.8-4.5,7c0.9,4.3,1.4,8.7,1.4,13.2
			c0,34.9-28.4,63.3-63.3,63.3c-2.9,0-5.8-0.2-8.6-0.6c-3.2-0.4-6.2,1.8-6.6,5c-0.4,3.2,1.8,6.2,5,6.6c3.4,0.5,6.8,0.7,10.2,0.7
			c0.1,0,0.3,0,0.4,0c0,0.1,0,0.3,0,0.4c0,23.7-16.1,44-39.1,49.4c-3.2,0.7-5.1,3.9-4.4,7.1c0.6,2.7,3.1,4.5,5.7,4.5
			c0.4,0,0.9-0.1,1.4-0.2c13.5-3.2,25.7-10.9,34.4-21.8c8.9-11,13.7-24.9,13.7-39.1c0-0.5,0-0.9,0-1.4c30.4-5,54.8-28.3,61.3-58.2
			c23.4-7.3,39.5-29,39.5-53.7c0-4.1-0.4-8.1-1.3-12C439.2,172.2,448.8,151.5,448.8,129.3L448.8,129.3z"/>
		<path d="M350.5,157.6c3.3,0,5.9-2.6,5.9-5.9s-2.6-5.9-5.9-5.9c-17.6,0-31.9-14.3-31.9-31.9c0-3.3-2.6-5.9-5.9-5.9
			s-5.9,2.6-5.9,5.9c0,11.9,4.8,22.7,12.5,30.6c-6.1,10.2-7.9,22.3-4.7,33.9c0.7,2.6,3.1,4.3,5.7,4.3c0.5,0,1-0.1,1.5-0.2
			c3.1-0.9,5-4.1,4.1-7.2c-2.2-8-1.2-16.4,2.7-23.6C335.2,155.4,342.6,157.6,350.5,157.6z"/>
	</g>
</g>
<text transform="matrix(1 0 0 1 37.0005 489.2354)"><tspan x="0" y="0" class="st4 st5">Identi</tspan><tspan x="264.8" y="0" class="st6 st4 st5">dys</tspan></text>
</svg>
